<?xml version="1.0" encoding="UTF-8" standalone="no"?>
<svg
   xmlns:osb="http://www.openswatchbook.org/uri/2009/osb"
   xmlns:dc="http://purl.org/dc/elements/1.1/"
   xmlns:cc="http://creativecommons.org/ns#"
   xmlns:rdf="http://www.w3.org/1999/02/22-rdf-syntax-ns#"
   xmlns:svg="http://www.w3.org/2000/svg"
   xmlns="http://www.w3.org/2000/svg"
   xmlns:xlink="http://www.w3.org/1999/xlink"
   xmlns:sodipodi="http://sodipodi.sourceforge.net/DTD/sodipodi-0.dtd"
   xmlns:inkscape="http://www.inkscape.org/namespaces/inkscape"
   version="1.1"
   x="0px"
   y="0px"
   viewBox="0 0 100 52"
   enable-background="new 0 0 100 100"
   xml:space="preserve"
   id="svg3406"
   inkscape:version="0.91 r13725"
   sodipodi:docname="beardwhale_cc.svg"
   width="100"
   height="52"><metadata
     id="metadata3426"><rdf:RDF><cc:Work
         rdf:about=""><dc:format>image/svg+xml</dc:format><dc:type
           rdf:resource="http://purl.org/dc/dcmitype/StillImage" /><dc:title></dc:title></cc:Work></rdf:RDF></metadata><defs
     id="defs3424"><linearGradient
       inkscape:collect="always"
       id="linearGradient5958"
       osb:paint="gradient"><stop
         style="stop-color:#666666;stop-opacity:1;"
         offset="0"
         id="stop5960" /><stop
         style="stop-color:#666666;stop-opacity:0;"
         offset="1"
         id="stop5962" /></linearGradient><linearGradient
       inkscape:collect="always"
       id="linearGradient5782"><stop
         style="stop-color:#ffff00;stop-opacity:1;"
         offset="0"
         id="stop5784" /><stop
         style="stop-color:#ffff00;stop-opacity:0;"
         offset="1"
         id="stop5786" /></linearGradient><linearGradient
       inkscape:collect="always"
       xlink:href="#linearGradient5782"
       id="linearGradient5788"
       x1="44.510777"
       y1="40.426849"
       x2="54.233395"
       y2="40.426849"
       gradientUnits="userSpaceOnUse" /><linearGradient
       inkscape:collect="always"
       xlink:href="#linearGradient5958"
       id="linearGradient5964"
       x1="47.418819"
       y1="40.50074"
       x2="51.266773"
       y2="40.50074"
       gradientUnits="userSpaceOnUse" /></defs><sodipodi:namedview
     pagecolor="#ffffff"
     bordercolor="#666666"
     borderopacity="1"
     objecttolerance="10"
     gridtolerance="10"
     guidetolerance="10"
     inkscape:pageopacity="0"
     inkscape:pageshadow="2"
     inkscape:window-width="1685"
     inkscape:window-height="1012"
     id="namedview3422"
     showgrid="false"
     inkscape:zoom="8"
     inkscape:cx="23.279056"
     inkscape:cy="36.34997"
     inkscape:window-x="1"
     inkscape:window-y="0"
     inkscape:window-maximized="0"
     inkscape:current-layer="layer1" /><g
     inkscape:groupmode="layer"
     id="layer3"
     inkscape:label="whale"
     style="display:inline"
     transform="translate(0,-73)"><g
       id="g6058"
       transform="translate(-4.375,70.375)"><path
         transform="translate(3.5441942,-20.462311)"
         sodipodi:nodetypes="ccccccccsccsccsccscccscccccccccccscccsccsccscccc"
         inkscape:connector-curvature="0"
         style="fill:#006976;fill-opacity:1"
         id="path3410"
         d="m 91.062,57.35 c 1.857,-4.641 2.075,-8.342 0.645,-11.011 -1.506,-2.811 -4.274,-3.343 -4.392,-3.364 L 86.238,42.779 86.1,44.355 c -0.172,2.063 -0.385,4.631 -2.203,6.035 -1.408,1.087 -3.686,1.367 -6.771,0.826 C 73.253,50.539 69.188,45.929 65.259,41.472 60.334,35.886 55.242,30.109 49.342,30.109 l -38.233,0 c -0.45,-0.057 -2.124,-0.177 -3.563,1.014 -1.404,1.163 -2.117,3.148 -2.117,5.899 l 0,15.444 c -0.055,0.424 -0.168,1.953 0.839,3.146 0.738,0.874 1.5387816,1.002782 2.9977816,1.002782 L 39.690153,55.202609 39.583,53.90779 9.581,54.929 C 8.743485,54.957507 8.145,54.727 7.804,54.329 7.268,53.704 7.415,52.707 7.415,52.704 L 7.429,37.021 c 0,-2.082 0.475,-3.583 1.373,-4.342 0.911,-0.77 2.013,-0.595 2.049,-0.588 l 38.491,0.018 c 4.997,0 9.786,5.432 14.417,10.685 4.35,4.934 8.458,9.594 13.023,10.393 3.707,0.646 6.438,0.252 8.337,-1.213 2.215,-1.71 2.693,-4.484 2.9,-6.621 0.628,0.339 1.402,0.937 1.941,1.962 1.174,2.229 0.802,5.709 -1.076,10.064 l -0.366,0.848 0.816,0.433 c 0.066,0.035 6,3.243 5.713,8.158 -1.771,-1.361 -5.511,-3.01 -13.246,-3.01 l -72.85,0 -0.171,0.014 C 8.776,63.821 8.316,63.875 7.97,63.584 7.595,63.269 7.397,62.608 7.397,61.676 l 0,-3.676 -2,0 0,3.676 c 0,1.564 0.433,2.721 1.286,3.438 0.92,0.773 1.984,0.733 2.333,0.693 l 72.786,0 c 11.045,0 12.891,3.496 12.896,3.502 l 0.992,2.4 0.873,-2.446 C 98.536,63.736 94.196,59.31 91.062,57.35 Z" /><circle
         style="fill:#006976;fill-opacity:1"
         id="circle3412"
         r="1.9170001"
         cy="37.833"
         cx="12.917"
         transform="translate(3.5441942,-20.462311)" /></g></g><g
     inkscape:groupmode="layer"
     id="layer1"
     inkscape:label="moustache"
     style="display:inline"
     transform="translate(0,-73)"><path
       id="path4279"
       d="m 29.058678,99.800153 c -0.253504,-0.04661 -0.642706,0.668757 -1.556953,0.668757 -1.174192,0 -1.72672,-1.432965 -3.561655,-1.432965 -1.455751,0 -1.899061,0.821458 -1.995395,0.821458 -0.09633,0 -0.539788,-0.821458 -1.995254,-0.821458 -1.834648,0 -2.387462,1.432965 -3.561797,1.432965 -0.914246,0 -1.303162,-0.715368 -1.556667,-0.668757 -0.237043,0.04367 0.436869,2.476837 3.648398,2.476837 2.083715,0 3.30858,-1.17347 3.46532,-1.17347 0.157026,0 1.381747,1.17347 3.465462,1.17347 3.211672,1e-4 3.885441,-2.433165 3.648541,-2.476837 z"
       inkscape:connector-curvature="0"
       style="fill:#ff6600" /></g><g
     inkscape:groupmode="layer"
     id="layer2"
     inkscape:label="headphones"
     style="display:inline"
     transform="translate(0,-73)" /><g
     id="g3408"
     style="fill:#006976;fill-opacity:1"
     transform="translate(-1.2058058,-23.462311)"><ellipse
       style="fill:#000000;fill-opacity:1;stroke:#ffffff;stroke-width:0.74024367"
       id="path4288"
       cx="49.342575"
       cy="40.370895"
       rx="6.7918577"
       ry="5.9865642" /><ellipse
       style="opacity:0.61499999;fill:#88aa00;fill-opacity:0;stroke:url(#linearGradient5788);stroke-opacity:1"
       id="path4324"
       cx="49.372086"
       cy="40.426849"
       rx="4.3613086"
       ry="4.0765944" /><rect
       style="opacity:1;fill:#000000;fill-opacity:1;stroke:#000000;stroke-width:0.44499999;stroke-miterlimit:4;stroke-dasharray:none;stroke-opacity:1"
       id="rect5832"
       width="0.71875"
       height="9.234375"
       x="46.5"
       y="26.34375" /><rect
       y="26.390625"
       x="50.53125"
       height="9.234375"
       width="0.71875"
       id="rect5834"
       style="opacity:1;fill:#000000;fill-opacity:1;stroke:#000000;stroke-width:0.44499999;stroke-miterlimit:4;stroke-dasharray:none;stroke-opacity:1" /><ellipse
       style="opacity:1;fill:#000000;fill-opacity:1;stroke:url(#linearGradient5964);stroke-width:0.44499999;stroke-miterlimit:3.4000001;stroke-dasharray:1.78, 0.445;stroke-dashoffset:3.91599965;stroke-opacity:1"
       id="path5836"
       cx="49.342796"
       cy="40.50074"
       rx="1.7014757"
       ry="1.6572815" /></g></svg>