<?xml version="1.0" encoding="UTF-8" standalone="no"?>
<!-- Created with Inkscape (http://www.inkscape.org/) -->

<svg
   xmlns:dc="http://purl.org/dc/elements/1.1/"
   xmlns:cc="http://creativecommons.org/ns#"
   xmlns:rdf="http://www.w3.org/1999/02/22-rdf-syntax-ns#"
   xmlns:svg="http://www.w3.org/2000/svg"
   xmlns="http://www.w3.org/2000/svg"
   xmlns:sodipodi="http://sodipodi.sourceforge.net/DTD/sodipodi-0.dtd"
   xmlns:inkscape="http://www.inkscape.org/namespaces/inkscape"
   width="156mm"
   height="41mm"
   viewBox="0 0 552.75575 145.27551"
   id="svg6062"
   version="1.1"
   inkscape:version="0.91 r13725"
   sodipodi:docname="beardwhale_beard.svg">
  <defs
     id="defs6064" />
  <sodipodi:namedview
     id="base"
     pagecolor="#ffffff"
     bordercolor="#666666"
     borderopacity="1.0"
     inkscape:pageopacity="0.0"
     inkscape:pageshadow="2"
     inkscape:zoom="0.98994949"
     inkscape:cx="618.20222"
     inkscape:cy="58.376379"
     inkscape:document-units="px"
     inkscape:current-layer="layer1"
     showgrid="false"
     inkscape:window-width="1676"
     inkscape:window-height="1005"
     inkscape:window-x="146"
     inkscape:window-y="0"
     inkscape:window-maximized="0" />
  <metadata
     id="metadata6067">
    <rdf:RDF>
      <cc:Work
         rdf:about="">
        <dc:format>image/svg+xml</dc:format>
        <dc:type
           rdf:resource="http://purl.org/dc/dcmitype/StillImage" />
        <dc:title></dc:title>
      </cc:Work>
    </rdf:RDF>
  </metadata>
  <g
     inkscape:label="Layer 1"
     inkscape:groupmode="layer"
     id="layer1"
     transform="translate(0,-907.08728)">
    <path
       id="path6222"
       d="m 549.37877,943.60425 c -9.73203,-2.04348 -24.67352,29.31943 -59.77147,29.31943 -45.07726,0 -66.2888,-62.82355 -136.73198,-62.82355 -55.88636,0 -72.90504,36.01404 -76.60332,36.01404 -3.69828,0 -20.72246,-36.01404 -76.59783,-36.01404 -70.43219,0 -91.65472,62.82355 -136.737468,62.82355 -35.09795,0 -50.02846,-31.36291 -59.7604862,-29.31943 -9.10007,1.91464 16.7714062,108.58855 140.0620842,108.58855 79.99387,0 127.01644,-51.4468 133.0337,-51.4468 6.02825,0 53.04532,51.4468 133.03919,51.4468 123.29618,0 149.16216,-106.67391 140.06758,-108.58855 z"
       inkscape:connector-curvature="0"
       style="fill:#d45500" />
  </g>
</svg>
